<?xml version="1.0" standalone="no"?>
<svg xmlns="http://www.w3.org/2000/svg" viewBox="0 0 221.391 36" width="221.391" height="36"><g fill="#B0EACD" color="#B0EACD" transform="translate(0 3.9999999999999982) scale(0.5600001)"><svg width="50.0" height="50.0" x="0.0" y="0.0" viewBox="0 0 50 50"><path fill="currentColor" fill-rule="evenodd" d="M24.968 0C11.178 0 0 11.178 0 24.968c0 7.13 2.993 13.555 7.784 18.104V28.647h4.083v17.576a24.911 24.911 0 0 0 5.424 2.506V15.22h4.083v34.456c1.174.17 2.373.262 3.594.262.616 0 1.225-.03 1.83-.075V34.606h4.083v14.62a24.785 24.785 0 0 0 5.424-2.014V23.783h4.083V44.6c5.81-4.572 9.549-11.663 9.549-19.63C49.937 11.178 38.757 0 24.967 0"></path></svg></g><path fill="#929aab" fill-rule="nonzero" d="M3.11 8.44L3.11 18.39Q2.54 18.32 0.94 18.32L0.94 18.32L0 18.32L0 2.68Q0.75 2.73 1.65 2.73Q2.55 2.73 2.93 2.64L2.93 2.64L6.87 9.33L10.65 2.64Q11.03 2.73 12.08 2.73Q13.14 2.73 13.89 2.68L13.89 2.68L13.89 18.32L12.95 18.32Q11.34 18.32 10.78 18.39L10.78 18.39L10.78 7.89L6.95 14.74L3.11 8.44ZM25.77 17.59L25.77 17.59Q24.11 18.49 22.76 18.49Q21.41 18.49 20.45 18.24Q19.49 17.99 18.82 17.50L18.82 17.50Q17.46 16.50 17.46 14.61L17.46 14.61Q17.46 12.93 19.13 11.80L19.13 11.80Q20.93 10.58 24.02 10.58L24.02 10.58L24.49 10.59Q24.63 10.61 24.81 10.61Q24.98 10.62 25.13 10.64L25.13 10.64Q25.03 8.77 23.51 8.45L23.51 8.45Q23.00 8.34 22.44 8.34Q21.87 8.34 21.32 8.44Q20.78 8.54 20.26 8.71L20.26 8.71Q19.13 9.07 18.63 9.54L18.63 9.54L18.60 9.52L18.25 6.93Q20.32 5.84 22.78 5.84L22.78 5.84Q26.60 5.84 27.67 8.59L27.67 8.59Q28.01 9.47 28.01 10.57L28.01 10.57L28.01 14.81Q28.01 16.17 28.97 16.66L28.97 16.66L26.85 18.61Q26.18 18.26 25.77 17.59ZM25.14 15.20L25.14 12.75Q24.82 12.69 24.48 12.69L24.48 12.69L24.01 12.69Q21.42 12.69 20.72 13.84L20.72 13.84Q20.51 14.18 20.51 14.55Q20.51 14.93 20.64 15.22Q20.78 15.50 21.09 15.69L21.09 15.69Q21.70 16.04 22.90 16.04Q24.11 16.04 25.15 15.47L25.15 15.47Q25.14 15.34 25.14 15.20L25.14 15.20ZM34.71 15.52L34.71 16.77Q34.71 17.78 34.79 18.32L34.79 18.32L31.84 18.32L31.84 1.56L34.71 1.56L34.71 11.82L40.07 6.07L43.55 6.07L38.93 10.93L41.57 14.53Q42.42 15.89 42.86 16.52L42.86 16.52L43.63 17.61Q43.98 18.07 44.21 18.32L44.21 18.32L42.36 18.32Q41.33 18.32 40.59 18.49L40.59 18.49L36.94 13.15L34.71 15.52ZM45.06 12.29L45.06 12.29Q45.06 10.92 45.53 9.75Q46.00 8.58 46.85 7.70L46.85 7.70Q48.68 5.84 51.63 5.84L51.63 5.84Q54.13 5.84 55.64 7.49L55.64 7.49Q57.13 9.08 57.13 11.50L57.13 11.50Q57.13 12.42 56.99 12.76L56.99 12.76Q55.82 13.09 52.22 13.09L52.22 13.09L48.09 13.09Q48.40 14.34 49.51 15.04Q50.63 15.74 52.41 15.74L52.41 15.74Q54.27 15.74 55.61 15.07L55.61 15.07Q55.96 14.89 56.13 14.74L56.13 14.74Q56.11 15.23 56.07 15.75L56.07 15.75L55.95 17.58Q55.05 18.19 53.06 18.42L53.06 18.42Q52.48 18.49 51.94 18.49L51.94 18.49Q48.96 18.49 47.02 16.76L47.02 16.76Q45.06 15.01 45.06 12.29ZM54.01 10.82L54.01 10.82Q53.53 8.30 51.27 8.30L51.27 8.30Q49.49 8.30 48.56 9.83L48.56 9.83Q48.28 10.30 48.13 10.86L48.13 10.86Q48.41 10.88 48.82 10.89L48.82 10.89L49.69 10.89Q50.12 10.90 50.52 10.90L50.52 10.90L51.19 10.90Q51.79 10.90 52.36 10.89L52.36 10.89L53.32 10.85Q53.71 10.84 54.01 10.82ZM66.75 18.32L63.23 18.32Q63.39 17.86 63.39 16.18L63.39 16.18L63.39 12.93Q61.36 8.46 60.80 7.35Q60.23 6.25 59.85 5.60L59.85 5.60Q58.63 3.54 58.38 3.23Q58.13 2.93 57.87 2.73L57.87 2.73L61.91 2.73Q62.04 2.96 62.26 3.42L62.26 3.42L65.10 9.41Q65.30 8.92 65.57 8.31L65.57 8.31Q68.12 2.81 68.16 2.73L68.16 2.73L72.02 2.73Q71.43 3.21 70.56 4.75L70.56 4.75Q70.29 5.20 70.02 5.79L70.02 5.79L67.37 11.31Q66.93 12.30 66.61 13.10L66.61 13.10L66.61 16.46Q66.61 17.64 66.75 18.32L66.75 18.32ZM72.76 12.26L72.76 12.26Q72.76 10.97 73.20 9.79Q73.64 8.61 74.46 7.73L74.46 7.73Q76.25 5.84 79.11 5.84L79.11 5.84Q81.96 5.84 83.64 7.63L83.64 7.63Q85.24 9.34 85.24 12.07L85.24 12.07Q85.24 14.80 83.59 16.59L83.59 16.59Q81.84 18.49 78.96 18.49L78.96 18.49Q75.98 18.49 74.30 16.63L74.30 16.63Q72.76 14.93 72.76 12.26ZM75.61 12.19L75.61 12.19Q75.61 12.93 75.86 13.62Q76.10 14.31 76.56 14.80L76.56 14.80Q77.53 15.87 79.11 15.87L79.11 15.87Q80.58 15.87 81.42 14.82L81.42 14.82Q82.24 13.82 82.24 12.20L82.24 12.20Q82.24 10.56 81.40 9.55L81.40 9.55Q80.50 8.47 78.93 8.47L78.93 8.47Q77.33 8.47 76.43 9.62L76.43 9.62Q75.61 10.68 75.61 12.19ZM95.02 18.32L95.02 17.25Q93.52 18.49 91.75 18.49L91.75 18.49Q89.85 18.49 88.77 17.21L88.77 17.21Q87.74 15.97 87.74 13.80L87.74 13.80L87.74 9.15Q87.74 6.81 87.64 6.46Q87.54 6.12 87.49 6.02L87.49 6.02Q88.03 6.07 88.62 6.07L88.62 6.07L89.59 6.07Q89.98 6.07 90.61 6.04L90.61 6.04L90.61 12.82Q90.61 15.23 91.92 15.62L91.92 15.62Q92.32 15.74 92.79 15.74L92.79 15.74Q94.17 15.74 95.02 14.73L95.02 14.73L95.02 6.07L97.92 6.07L97.92 16.82Q97.92 17.85 98.02 18.32L98.02 18.32L95.02 18.32ZM104.43 9.79L104.43 17.00Q104.43 18.01 104.47 18.32L104.47 18.32L101.55 18.32L101.55 6.07L104.43 6.07L104.43 6.97Q105.42 5.84 106.52 5.84Q107.61 5.84 108.25 6.11L108.25 6.11L108.04 9.26L107.99 9.29Q107.58 8.57 106.29 8.57L106.29 8.57Q105.80 8.57 105.29 8.90Q104.78 9.23 104.43 9.79L104.43 9.79ZM109.75 18.32L109.75 2.65Q111.38 2.44 113.09 2.44L113.09 2.44Q116.27 2.44 117.93 3.93Q119.59 5.43 119.59 8.40L119.59 8.40Q119.59 11.06 117.77 12.61L117.77 12.61Q116.07 14.06 113.40 14.06L113.40 14.06Q113.10 14.06 112.73 14.03L112.73 14.03L112.73 18.32L109.75 18.32ZM113.44 5.26L113.44 5.26Q113.09 5.26 112.73 5.29L112.73 5.29L112.73 11.45Q113.11 11.50 113.65 11.50Q114.19 11.50 114.77 11.27Q115.36 11.04 115.76 10.63L115.76 10.63Q116.59 9.77 116.59 8.38L116.59 8.38Q116.59 5.26 113.44 5.26ZM124.42 0.86L124.42 17.00Q124.42 18.01 124.46 18.32L124.46 18.32L121.49 18.32L121.49 0.86L124.42 0.86ZM135.80 17.59L135.80 17.59Q134.13 18.49 132.79 18.49Q131.44 18.49 130.48 18.24Q129.52 17.99 128.85 17.50L128.85 17.50Q127.49 16.50 127.49 14.61L127.49 14.61Q127.49 12.93 129.15 11.80L129.15 11.80Q130.96 10.58 134.05 10.58L134.05 10.58L134.52 10.59Q134.66 10.61 134.84 10.61Q135.01 10.62 135.15 10.64L135.15 10.64Q135.06 8.77 133.54 8.45L133.54 8.45Q133.03 8.34 132.46 8.34Q131.89 8.34 131.35 8.44Q130.80 8.54 130.29 8.71L130.29 8.71Q129.15 9.07 128.66 9.54L128.66 9.54L128.63 9.52L128.27 6.93Q130.35 5.84 132.81 5.84L132.81 5.84Q136.63 5.84 137.70 8.59L137.70 8.59Q138.04 9.47 138.04 10.57L138.04 10.57L138.04 14.81Q138.04 16.17 139.00 16.66L139.00 16.66L136.88 18.61Q136.21 18.26 135.80 17.59ZM135.16 15.20L135.16 12.75Q134.85 12.69 134.51 12.69L134.51 12.69L134.04 12.69Q131.45 12.69 130.75 13.84L130.75 13.84Q130.54 14.18 130.54 14.55Q130.54 14.93 130.67 15.22Q130.80 15.50 131.12 15.69L131.12 15.69Q131.73 16.04 132.93 16.04Q134.13 16.04 135.18 15.47L135.18 15.47Q135.16 15.34 135.16 15.20L135.16 15.20ZM143.59 23.45L140.57 22.39L141.34 21.77Q143.09 20.36 144.23 17.59L144.23 17.59L144.77 16.29L140.29 6.07L143.57 6.07L146.38 13.15L148.99 6.07L152.37 6.07Q151.76 6.91 150.88 9.21L150.88 9.21L149.12 13.56Q145.59 21.86 143.59 23.45L143.59 23.45ZM156.42 0.86L156.42 17.00Q156.42 18.01 156.47 18.32L156.47 18.32L153.49 18.32L153.49 0.86L156.42 0.86ZM161.98 4.48L159.34 2.58Q160.28 1.11 161.30 0L161.30 0L163.82 1.98Q163.31 2.60 162.88 3.20L162.88 3.20Q162.88 3.20 161.98 4.48L161.98 4.48ZM162.42 6.07L162.42 17.00Q162.42 18.01 162.47 18.32L162.47 18.32L159.49 18.32L159.49 6.07L162.42 6.07ZM169.85 18.49L169.85 18.49Q166.55 18.49 164.87 17.29L164.87 17.29Q164.89 16.93 164.94 16.49L164.94 16.49L165.05 15.64Q165.14 14.81 165.16 14.61Q165.19 14.40 165.20 14.38Q165.21 14.37 165.39 14.57Q165.56 14.78 166.05 15.07Q166.55 15.36 167.19 15.59L167.19 15.59Q168.59 16.07 170.10 16.07L170.10 16.07Q172.13 16.07 172.13 14.72L172.13 14.72Q172.13 14.29 171.74 14.07L171.74 14.07Q171.05 13.72 169.71 13.54Q168.36 13.36 167.51 13.01Q166.65 12.66 166.11 12.16L166.11 12.16Q165.12 11.24 165.12 9.74L165.12 9.74Q165.12 7.91 166.52 6.87L166.52 6.87Q167.92 5.84 170.38 5.84L170.38 5.84Q172.82 5.84 174.54 7.22L174.54 7.22Q174.46 7.52 174.36 7.80L174.36 7.80Q174.09 8.58 173.96 8.92L173.96 8.92L173.70 9.61Q173.67 9.70 173.66 9.70L173.66 9.70Q173.64 9.70 173.47 9.46L173.47 9.46Q172.73 8.60 171.18 8.33L171.18 8.33Q170.70 8.24 170.19 8.24L170.19 8.24Q168.06 8.24 168.06 9.53L168.06 9.53Q168.06 9.97 168.50 10.21L168.50 10.21Q169.34 10.65 170.78 10.86Q172.23 11.07 172.98 11.43Q173.73 11.79 174.19 12.29L174.19 12.29Q175.03 13.21 175.03 14.72L175.03 14.72Q175.03 16.37 173.71 17.40L173.71 17.40Q172.32 18.49 169.85 18.49ZM183.19 15.74L183.19 15.74Q184.70 15.74 185.26 14.95L185.26 14.95L185.36 14.95L185.39 17.67Q184.82 18.25 183.26 18.43L183.26 18.43Q182.84 18.49 182.21 18.49Q181.58 18.49 180.85 18.26Q180.12 18.02 179.60 17.50L179.60 17.50Q178.54 16.41 178.54 14.09L178.54 14.09L178.54 8.77L176.77 8.77Q176.75 8.43 176.75 8.07L176.75 8.07L176.75 6.27Q176.75 6.07 176.77 6.07L176.77 6.07L178.54 6.07L178.54 2.73L181.41 2.73L181.41 6.07L184.63 6.07L184.63 8.77L181.41 8.77L181.41 13.55Q181.41 15.39 182.43 15.64L182.43 15.64Q182.75 15.74 183.19 15.74Z" transform="translate(36, 8.842)"></path></svg>